<svg width="481" height="95" viewBox="0 0 481 95" fill="none" xmlns="http://www.w3.org/2000/svg">
<path d="M469.629 0.818181H480.815V61.9813C480.815 68.2961 479.327 73.9343 476.35 78.8959C473.403 83.8275 469.238 87.7216 463.856 90.5783C458.473 93.4049 452.158 94.8182 444.911 94.8182C437.664 94.8182 431.35 93.4049 425.967 90.5783C420.584 87.7216 416.405 83.8275 413.428 78.8959C410.481 73.9343 409.007 68.2961 409.007 61.9813V0.818181H420.193V61.0792C420.193 65.5898 421.186 69.6042 423.17 73.1224C425.155 76.6106 427.982 79.362 431.65 81.3767C435.349 83.3614 439.769 84.3537 444.911 84.3537C450.053 84.3537 454.474 83.3614 458.172 81.3767C461.871 79.362 464.698 76.6106 466.652 73.1224C468.637 69.6042 469.629 65.5898 469.629 61.0792V0.818181Z" fill="#2A354F"/>
<path d="M326.148 93.1944V0.818181H337.335V46.6454H338.417L379.914 0.818181H394.528L355.738 42.4957L394.528 93.1944H380.997L348.882 50.2539L337.335 63.2443V93.1944H326.148Z" fill="#2A354F"/>
<path d="M250.236 93.1944V0.818181H305.986V10.7414H261.422V41.9545H303.099V51.8777H261.422V83.2712H306.708V93.1944H250.236Z" fill="#2A354F"/>
<path d="M167.377 93.1944V0.818181H178.563V46.6454H179.645L221.143 0.818181H235.757L196.966 42.4957L235.757 93.1944H222.225L190.11 50.2539L178.563 63.2443V93.1944H167.377Z" fill="#2A354F"/>
<path d="M91.4641 93.1944V0.818181H147.215V10.7414H102.65V41.9545H144.328V51.8777H102.65V83.2712H147.936V93.1944H91.4641Z" fill="#2A354F"/>
<path d="M28.6772 93.1944H0.170456V0.818181H29.9401C38.9011 0.818181 46.569 2.66751 52.944 6.36617C59.3189 10.0348 64.2053 15.3121 67.6033 22.1982C71.0012 29.0543 72.7002 37.2635 72.7002 46.8259C72.7002 56.4484 70.9862 64.7328 67.5582 71.679C64.1302 78.5952 59.1385 83.9177 52.5831 87.6464C46.0278 91.3451 38.0591 93.1944 28.6772 93.1944ZM11.3566 83.2712H27.9555C35.5934 83.2712 41.9232 81.7977 46.9449 78.8508C51.9667 75.9039 55.7104 71.7091 58.1762 66.2664C60.642 60.8236 61.8749 54.3435 61.8749 46.8259C61.8749 39.3684 60.657 32.9484 58.2213 27.5658C55.7856 22.1531 52.1471 18.0034 47.3058 15.1166C42.4644 12.1998 36.4353 10.7414 29.2184 10.7414H11.3566V83.2712Z" fill="#2A354F"/>
</svg>
