<svg width="294" height="69" viewBox="0 0 294 69" fill="none" xmlns="http://www.w3.org/2000/svg">
<path d="M270.219 65.5625C268.844 65.5625 267.677 65.25 266.719 64.625C265.76 64 265.281 62.9583 265.281 61.5C265.281 60.25 265.677 58.6875 266.469 56.8125C267.26 54.8958 268.51 52.6458 270.219 50.0625C267.594 52.3542 265.094 54.4167 262.719 56.25C260.385 58.0833 257.99 59.6458 255.531 60.9375C253.74 61.8542 252.135 62.5625 250.719 63.0625C249.302 63.5625 248.073 63.9167 247.031 64.125C246.031 64.3333 245.24 64.4583 244.656 64.5C244.073 64.5417 243.719 64.5625 243.594 64.5625C243.552 64.5625 243.219 64.5625 242.594 64.5625C242.01 64.5208 241.385 64.375 240.719 64.125C240.01 63.875 239.365 63.4375 238.781 62.8125C238.198 62.1875 237.906 61.25 237.906 60C237.906 58.2083 238.74 55.7292 240.406 52.5625C242.073 49.3542 244.531 45.4167 247.781 40.75C249.156 38.75 250.302 37.1458 251.219 35.9375C252.135 34.6875 252.844 33.7292 253.344 33.0625C253.885 32.3958 254.26 31.9583 254.469 31.75C254.719 31.5 254.865 31.375 254.906 31.375C255.281 31.375 255.469 31.5833 255.469 32C255.469 32.125 255.427 32.2292 255.344 32.3125C255.344 32.3125 254.927 32.8542 254.094 33.9375C253.302 34.9792 252.302 36.3333 251.094 38C249.885 39.6667 248.573 41.5417 247.156 43.625C245.74 45.6667 244.427 47.7083 243.219 49.75C242.052 51.7917 241.073 53.7292 240.281 55.5625C239.448 57.3542 239.031 58.8333 239.031 60C239.031 61.2917 239.469 62.2083 240.344 62.75C241.177 63.25 242.198 63.5 243.406 63.5C244.406 63.5 245.49 63.375 246.656 63.125C247.823 62.8333 248.948 62.5 250.031 62.125C251.156 61.7083 252.156 61.2917 253.031 60.875C253.948 60.4583 254.656 60.125 255.156 59.875C257.49 58.625 260.26 56.7917 263.469 54.375C266.719 51.9583 270.281 48.6458 274.156 44.4375C275.281 43.1042 276.448 41.6875 277.656 40.1875C278.906 38.6875 280.031 37.3125 281.031 36.0625C282.073 34.7708 282.927 33.7083 283.594 32.875C284.26 32 284.594 31.5625 284.594 31.5625L285.469 32.3125C283.927 34.2708 282.302 36.2292 280.594 38.1875C278.927 40.1458 277.281 42.1458 275.656 44.1875C274.073 46.1875 272.573 48.25 271.156 50.375C269.781 52.4583 268.594 54.625 267.594 56.875C266.844 58.5833 266.469 60.0417 266.469 61.25C266.469 63.4167 267.719 64.5 270.219 64.5C271.552 64.5 273.073 64.1875 274.781 63.5625C276.531 62.8958 278.365 61.9792 280.281 60.8125C282.24 59.6458 284.26 58.25 286.344 56.625C288.427 54.9583 290.51 53.125 292.594 51.125C292.76 51.0417 292.906 51 293.031 51C293.365 51 293.531 51.1875 293.531 51.5625C293.531 51.7292 293.49 51.8542 293.406 51.9375C291.281 54.0208 289.156 55.8958 287.031 57.5625C284.906 59.2292 282.844 60.6458 280.844 61.8125C278.844 62.9792 276.948 63.8958 275.156 64.5625C273.365 65.1875 271.719 65.5208 270.219 65.5625Z" fill="black"/>
<path d="M193.25 65.3125C193.792 63.7708 194.667 61.7917 195.875 59.375C197.083 56.9167 198.604 54.1042 200.438 50.9375C202.271 47.7292 204.396 44.1875 206.812 40.3125C209.271 36.3958 212.042 32.2083 215.125 27.75C217.25 24.7083 219.271 21.8542 221.188 19.1875C223.104 16.4792 224.792 14.125 226.25 12.125C227.75 10.125 228.938 8.54167 229.812 7.375C230.729 6.20833 231.188 5.60417 231.188 5.5625C231.271 5.47917 231.562 5.14583 232.062 4.5625C232.604 3.9375 233.271 3.29167 234.062 2.625C234.854 1.95834 235.75 1.35417 236.75 0.812502C237.75 0.270834 238.771 0 239.812 0C240.271 0 240.771 0.104168 241.312 0.312504C241.854 0.520836 242.354 0.812502 242.812 1.1875C243.271 1.5625 243.646 2.04167 243.938 2.625C244.229 3.16667 244.375 3.77084 244.375 4.4375C244.375 5.8125 243.792 7.5 242.625 9.5C241.5 11.5 239.812 13.75 237.562 16.25C236.354 17.5833 235.125 18.8958 233.875 20.1875C232.625 21.4375 231.438 22.5833 230.312 23.625C229.229 24.6667 228.292 25.5417 227.5 26.25C226.708 26.9583 226.167 27.4375 225.875 27.6875C225.125 28.3125 224.021 29.2292 222.562 30.4375C221.104 31.6458 219.354 33.0417 217.312 34.625C217.854 34.4167 218.583 34.1667 219.5 33.875C220.458 33.5833 221.479 33.2917 222.562 33C223.688 32.7083 224.812 32.4792 225.938 32.3125C227.104 32.1042 228.125 32 229 32C230.333 32 231.5 32.1667 232.5 32.5C233.5 32.8333 234.333 33.2917 235 33.875C235.667 34.4583 236.167 35.1458 236.5 35.9375C236.833 36.6875 237 37.5 237 38.375C237 39.7083 236.583 41 235.75 42.25C234.917 43.5 233.792 44.6042 232.375 45.5625C231 46.4792 229.375 47.2292 227.5 47.8125C225.625 48.3542 223.646 48.625 221.562 48.625C220.188 48.625 218.896 48.5417 217.688 48.375C216.521 48.1667 215.458 47.9375 214.5 47.6875C213.542 47.4375 212.708 47.1875 212 46.9375C211.333 46.6875 210.812 46.4792 210.438 46.3125C210.229 47.0208 209.958 48.1042 209.625 49.5625C209.333 51.0208 209.188 52.6875 209.188 54.5625C209.188 55.9792 209.354 57.3125 209.688 58.5625C210.021 59.7708 210.521 60.8333 211.188 61.75C211.896 62.625 212.792 63.3333 213.875 63.875C215 64.375 216.354 64.625 217.938 64.625C219.188 64.625 220.542 64.4583 222 64.125C223.458 63.7917 225.104 63.1667 226.938 62.25C228.812 61.2917 230.875 60 233.125 58.375C235.417 56.7083 238 54.5625 240.875 51.9375C241 51.8125 241.125 51.75 241.25 51.75C241.625 51.75 241.812 51.9375 241.812 52.3125C241.812 52.4792 241.75 52.625 241.625 52.75C238.875 55.25 236.375 57.3333 234.125 59C231.875 60.6667 229.792 62 227.875 63C225.958 64 224.167 64.6875 222.5 65.0625C220.875 65.4792 219.312 65.6875 217.812 65.6875C214.688 65.6875 212.271 64.7292 210.562 62.8125C208.896 60.8958 208.062 58.0833 208.062 54.375C208.062 53.3333 208.125 52.2708 208.25 51.1875C208.417 50.1042 208.583 49.1458 208.75 48.3125C208.958 47.4375 209.146 46.7292 209.312 46.1875C209.479 45.6458 209.562 45.375 209.562 45.375L209.75 44.8125L210.375 45.0625C210.375 45.0625 210.687 45.1875 211.312 45.4375C211.938 45.6875 212.75 45.9792 213.75 46.3125C214.792 46.6042 215.958 46.875 217.25 47.125C218.583 47.375 219.979 47.5 221.438 47.5C223.229 47.5 224.979 47.2708 226.688 46.8125C228.438 46.3542 229.979 45.7292 231.312 44.9375C232.688 44.1042 233.792 43.1458 234.625 42.0625C235.458 40.9375 235.875 39.7083 235.875 38.375C235.875 36.75 235.25 35.4792 234 34.5625C232.792 33.6042 231.125 33.125 229 33.125C227.625 33.125 226.229 33.2708 224.812 33.5625C223.396 33.8542 222.104 34.1875 220.938 34.5625C219.771 34.8958 218.792 35.2292 218 35.5625C217.25 35.8542 216.875 36 216.875 36C215.208 36.7083 213.604 37.6667 212.062 38.875C210.562 40.0417 209.125 41.3542 207.75 42.8125C206.417 44.2292 205.188 45.75 204.062 47.375C202.938 48.9583 201.938 50.5 201.062 52C200.271 53.3333 199.562 54.6042 198.938 55.8125C198.271 56.9792 197.688 58.1042 197.188 59.1875C196.646 60.2708 196.146 61.3542 195.688 62.4375C195.188 63.4792 194.729 64.5625 194.312 65.6875L193.25 65.3125ZM239.75 1.125C238.833 1.125 237.917 1.375 237 1.875C236.125 2.375 235.333 2.9375 234.625 3.5625C233.917 4.1875 233.312 4.77083 232.812 5.3125C232.354 5.85417 232.104 6.16667 232.062 6.25C232.062 6.25 231.708 6.70834 231 7.625C230.333 8.54167 229.417 9.8125 228.25 11.4375C227.083 13.0208 225.708 14.8958 224.125 17.0625C222.583 19.1875 220.938 21.5 219.188 24C217.438 26.4583 215.646 29.0417 213.812 31.75C211.979 34.4583 210.188 37.1458 208.438 39.8125C210.479 38.3542 212.375 36.9583 214.125 35.625C215.917 34.25 217.521 33 218.938 31.875C220.396 30.75 221.646 29.75 222.688 28.875C223.729 28 224.542 27.3125 225.125 26.8125C225.5 26.4792 226.208 25.8333 227.25 24.875C228.292 23.9167 229.479 22.7917 230.812 21.5C232.188 20.1667 233.604 18.7292 235.062 17.1875C236.521 15.6042 237.854 14.0417 239.062 12.5C240.271 10.9583 241.271 9.5 242.062 8.125C242.854 6.70833 243.25 5.5 243.25 4.5C243.25 3.95834 243.125 3.47917 242.875 3.0625C242.667 2.64583 242.375 2.3125 242 2.0625C241.667 1.77084 241.292 1.54167 240.875 1.375C240.458 1.20833 240.083 1.125 239.75 1.125Z" fill="black"/>
<path d="M159.844 64.1875C158.385 63.3958 157.365 62.3542 156.781 61.0625C156.156 59.7708 155.844 58.3542 155.844 56.8125C155.844 55.6042 156.01 54.3542 156.344 53.0625C156.635 51.7708 157.052 50.5417 157.594 49.375C158.135 48.1667 158.74 47.0625 159.406 46.0625C160.073 45.0208 160.76 44.125 161.469 43.375C160.802 43.0417 160.302 42.7917 159.969 42.625C159.677 42.4583 159.49 42.3333 159.406 42.25C159.323 42.125 159.281 42.0417 159.281 42C159.323 41.9583 159.344 41.8958 159.344 41.8125C159.344 41.4375 159.531 41.25 159.906 41.25C160.073 41.25 160.135 41.25 160.094 41.25C160.052 41.2083 160.052 41.2292 160.094 41.3125C160.135 41.3542 160.281 41.4583 160.531 41.625C160.823 41.7917 161.406 42.0833 162.281 42.5C165.781 38.75 169.427 35.7708 173.219 33.5625C177.052 31.3542 180.74 30.25 184.281 30.25C185.49 30.25 186.656 30.4167 187.781 30.75C188.906 31.0833 189.906 31.5625 190.781 32.1875C191.656 32.7708 192.344 33.5 192.844 34.375C193.385 35.2083 193.656 36.1458 193.656 37.1875C193.656 38.9375 193.115 40.4792 192.031 41.8125C190.99 43.1458 189.677 44.25 188.094 45.125C186.552 46 184.885 46.6667 183.094 47.125C181.302 47.5417 179.656 47.75 178.156 47.75C176.323 47.75 174.573 47.6042 172.906 47.3125C171.24 46.9792 169.719 46.625 168.344 46.25C167.01 45.8333 165.844 45.4167 164.844 45C163.844 44.5417 163.073 44.1875 162.531 43.9375C161.906 44.5208 161.26 45.3125 160.594 46.3125C159.927 47.2708 159.323 48.3333 158.781 49.5C158.281 50.625 157.844 51.8333 157.469 53.125C157.135 54.375 156.969 55.6042 156.969 56.8125C156.969 59.1875 157.781 61.0833 159.406 62.5C161.073 63.9167 163.635 64.625 167.094 64.625C168.427 64.625 169.781 64.5417 171.156 64.375C172.531 64.1667 173.844 63.9375 175.094 63.6875C176.344 63.3958 177.469 63.1042 178.469 62.8125C179.469 62.4792 180.281 62.1875 180.906 61.9375C182.573 61.2708 184.198 60.5625 185.781 59.8125C187.406 59.0208 189.031 58.1458 190.656 57.1875C192.323 56.2292 194.031 55.125 195.781 53.875C197.531 52.5833 199.406 51.0833 201.406 49.375C201.573 49.2917 201.698 49.25 201.781 49.25C201.906 49.25 202.031 49.2917 202.156 49.375C202.281 49.4583 202.344 49.6042 202.344 49.8125C202.344 49.9792 202.281 50.125 202.156 50.25C200.115 52 198.198 53.5208 196.406 54.8125C194.615 56.0625 192.885 57.1875 191.219 58.1875C189.552 59.1458 187.906 60 186.281 60.75C184.656 61.5 182.99 62.2292 181.281 62.9375C180.365 63.2708 179.344 63.6042 178.219 63.9375C177.094 64.2708 175.906 64.5625 174.656 64.8125C173.448 65.0625 172.198 65.2708 170.906 65.4375C169.615 65.6042 168.344 65.6875 167.094 65.6875C165.76 65.6875 164.469 65.5625 163.219 65.3125C161.969 65.1042 160.844 64.7292 159.844 64.1875ZM164.969 43.8125C165.635 44.1042 166.427 44.4167 167.344 44.75C168.302 45.0833 169.344 45.3958 170.469 45.6875C171.594 45.9375 172.802 46.1667 174.094 46.375C175.385 46.5417 176.698 46.625 178.031 46.625C179.74 46.625 181.448 46.375 183.156 45.875C184.865 45.375 186.406 44.7083 187.781 43.875C189.156 43.0417 190.281 42.0625 191.156 40.9375C192.031 39.7708 192.469 38.5625 192.469 37.3125C192.469 36.4375 192.24 35.6458 191.781 34.9375C191.365 34.1875 190.781 33.5417 190.031 33C189.281 32.4583 188.406 32.0417 187.406 31.75C186.448 31.4583 185.448 31.3125 184.406 31.3125C183.073 31.3125 181.615 31.5 180.031 31.875C178.49 32.25 176.823 32.8958 175.031 33.8125C173.281 34.6875 171.406 35.875 169.406 37.375C167.448 38.875 165.406 40.7708 163.281 43.0625L164.969 43.8125Z" fill="black"/>
<path d="M108.969 65.3125C109.51 63.7708 110.385 61.7917 111.594 59.375C112.802 56.9167 114.323 54.1042 116.156 50.9375C117.99 47.7292 120.115 44.1875 122.531 40.3125C124.99 36.3958 127.76 32.2083 130.844 27.75C132.969 24.7083 134.99 21.8542 136.906 19.1875C138.823 16.4792 140.51 14.125 141.969 12.125C143.469 10.125 144.656 8.54167 145.531 7.375C146.448 6.20833 146.906 5.60417 146.906 5.5625C146.99 5.47917 147.281 5.14583 147.781 4.5625C148.323 3.9375 148.99 3.29167 149.781 2.625C150.573 1.95834 151.469 1.35417 152.469 0.812502C153.469 0.270834 154.49 0 155.531 0C155.99 0 156.49 0.104168 157.031 0.312504C157.573 0.520836 158.073 0.812502 158.531 1.1875C158.99 1.5625 159.365 2.04167 159.656 2.625C159.948 3.16667 160.094 3.77084 160.094 4.4375C160.094 5.8125 159.51 7.5 158.344 9.5C157.219 11.5 155.531 13.75 153.281 16.25C152.073 17.5833 150.844 18.8958 149.594 20.1875C148.344 21.4375 147.156 22.5833 146.031 23.625C144.948 24.6667 144.01 25.5417 143.219 26.25C142.427 26.9583 141.885 27.4375 141.594 27.6875C140.844 28.3125 139.74 29.2292 138.281 30.4375C136.823 31.6458 135.073 33.0417 133.031 34.625C133.573 34.4167 134.302 34.1667 135.219 33.875C136.177 33.5833 137.198 33.2917 138.281 33C139.406 32.7083 140.531 32.4792 141.656 32.3125C142.823 32.1042 143.844 32 144.719 32C146.052 32 147.219 32.1667 148.219 32.5C149.219 32.8333 150.052 33.2917 150.719 33.875C151.385 34.4583 151.885 35.1458 152.219 35.9375C152.552 36.6875 152.719 37.5 152.719 38.375C152.719 39.7083 152.302 41 151.469 42.25C150.635 43.5 149.51 44.6042 148.094 45.5625C146.719 46.4792 145.094 47.2292 143.219 47.8125C141.344 48.3542 139.365 48.625 137.281 48.625C135.906 48.625 134.615 48.5417 133.406 48.375C132.24 48.1667 131.177 47.9375 130.219 47.6875C129.26 47.4375 128.427 47.1875 127.719 46.9375C127.052 46.6875 126.531 46.4792 126.156 46.3125C125.948 47.0208 125.677 48.1042 125.344 49.5625C125.052 51.0208 124.906 52.6875 124.906 54.5625C124.906 55.9792 125.073 57.3125 125.406 58.5625C125.74 59.7708 126.24 60.8333 126.906 61.75C127.615 62.625 128.51 63.3333 129.594 63.875C130.719 64.375 132.073 64.625 133.656 64.625C134.906 64.625 136.26 64.4583 137.719 64.125C139.177 63.7917 140.823 63.1667 142.656 62.25C144.531 61.2917 146.594 60 148.844 58.375C151.135 56.7083 153.719 54.5625 156.594 51.9375C156.719 51.8125 156.844 51.75 156.969 51.75C157.344 51.75 157.531 51.9375 157.531 52.3125C157.531 52.4792 157.469 52.625 157.344 52.75C154.594 55.25 152.094 57.3333 149.844 59C147.594 60.6667 145.51 62 143.594 63C141.677 64 139.885 64.6875 138.219 65.0625C136.594 65.4792 135.031 65.6875 133.531 65.6875C130.406 65.6875 127.99 64.7292 126.281 62.8125C124.615 60.8958 123.781 58.0833 123.781 54.375C123.781 53.3333 123.844 52.2708 123.969 51.1875C124.135 50.1042 124.302 49.1458 124.469 48.3125C124.677 47.4375 124.865 46.7292 125.031 46.1875C125.198 45.6458 125.281 45.375 125.281 45.375L125.469 44.8125L126.094 45.0625C126.094 45.0625 126.406 45.1875 127.031 45.4375C127.656 45.6875 128.469 45.9792 129.469 46.3125C130.51 46.6042 131.677 46.875 132.969 47.125C134.302 47.375 135.698 47.5 137.156 47.5C138.948 47.5 140.698 47.2708 142.406 46.8125C144.156 46.3542 145.698 45.7292 147.031 44.9375C148.406 44.1042 149.51 43.1458 150.344 42.0625C151.177 40.9375 151.594 39.7083 151.594 38.375C151.594 36.75 150.969 35.4792 149.719 34.5625C148.51 33.6042 146.844 33.125 144.719 33.125C143.344 33.125 141.948 33.2708 140.531 33.5625C139.115 33.8542 137.823 34.1875 136.656 34.5625C135.49 34.8958 134.51 35.2292 133.719 35.5625C132.969 35.8542 132.594 36 132.594 36C130.927 36.7083 129.323 37.6667 127.781 38.875C126.281 40.0417 124.844 41.3542 123.469 42.8125C122.135 44.2292 120.906 45.75 119.781 47.375C118.656 48.9583 117.656 50.5 116.781 52C115.99 53.3333 115.281 54.6042 114.656 55.8125C113.99 56.9792 113.406 58.1042 112.906 59.1875C112.365 60.2708 111.865 61.3542 111.406 62.4375C110.906 63.4792 110.448 64.5625 110.031 65.6875L108.969 65.3125ZM155.469 1.125C154.552 1.125 153.635 1.375 152.719 1.875C151.844 2.375 151.052 2.9375 150.344 3.5625C149.635 4.1875 149.031 4.77083 148.531 5.3125C148.073 5.85417 147.823 6.16667 147.781 6.25C147.781 6.25 147.427 6.70834 146.719 7.625C146.052 8.54167 145.135 9.8125 143.969 11.4375C142.802 13.0208 141.427 14.8958 139.844 17.0625C138.302 19.1875 136.656 21.5 134.906 24C133.156 26.4583 131.365 29.0417 129.531 31.75C127.698 34.4583 125.906 37.1458 124.156 39.8125C126.198 38.3542 128.094 36.9583 129.844 35.625C131.635 34.25 133.24 33 134.656 31.875C136.115 30.75 137.365 29.75 138.406 28.875C139.448 28 140.26 27.3125 140.844 26.8125C141.219 26.4792 141.927 25.8333 142.969 24.875C144.01 23.9167 145.198 22.7917 146.531 21.5C147.906 20.1667 149.323 18.7292 150.781 17.1875C152.24 15.6042 153.573 14.0417 154.781 12.5C155.99 10.9583 156.99 9.5 157.781 8.125C158.573 6.70833 158.969 5.5 158.969 4.5C158.969 3.95834 158.844 3.47917 158.594 3.0625C158.385 2.64583 158.094 2.3125 157.719 2.0625C157.385 1.77084 157.01 1.54167 156.594 1.375C156.177 1.20833 155.802 1.125 155.469 1.125Z" fill="black"/>
<path d="M75.5625 64.1875C74.1042 63.3958 73.0833 62.3542 72.5 61.0625C71.875 59.7708 71.5625 58.3542 71.5625 56.8125C71.5625 55.6042 71.7292 54.3542 72.0625 53.0625C72.3542 51.7708 72.7708 50.5417 73.3125 49.375C73.8542 48.1667 74.4583 47.0625 75.125 46.0625C75.7917 45.0208 76.4792 44.125 77.1875 43.375C76.5208 43.0417 76.0208 42.7917 75.6875 42.625C75.3958 42.4583 75.2083 42.3333 75.125 42.25C75.0417 42.125 75 42.0417 75 42C75.0417 41.9583 75.0625 41.8958 75.0625 41.8125C75.0625 41.4375 75.25 41.25 75.625 41.25C75.7917 41.25 75.8542 41.25 75.8125 41.25C75.7708 41.2083 75.7708 41.2292 75.8125 41.3125C75.8542 41.3542 76 41.4583 76.25 41.625C76.5417 41.7917 77.125 42.0833 78 42.5C81.5 38.75 85.1458 35.7708 88.9375 33.5625C92.7708 31.3542 96.4583 30.25 100 30.25C101.208 30.25 102.375 30.4167 103.5 30.75C104.625 31.0833 105.625 31.5625 106.5 32.1875C107.375 32.7708 108.062 33.5 108.562 34.375C109.104 35.2083 109.375 36.1458 109.375 37.1875C109.375 38.9375 108.833 40.4792 107.75 41.8125C106.708 43.1458 105.396 44.25 103.812 45.125C102.271 46 100.604 46.6667 98.8125 47.125C97.0208 47.5417 95.375 47.75 93.875 47.75C92.0417 47.75 90.2917 47.6042 88.625 47.3125C86.9583 46.9792 85.4375 46.625 84.0625 46.25C82.7292 45.8333 81.5625 45.4167 80.5625 45C79.5625 44.5417 78.7917 44.1875 78.25 43.9375C77.625 44.5208 76.9792 45.3125 76.3125 46.3125C75.6458 47.2708 75.0417 48.3333 74.5 49.5C74 50.625 73.5625 51.8333 73.1875 53.125C72.8542 54.375 72.6875 55.6042 72.6875 56.8125C72.6875 59.1875 73.5 61.0833 75.125 62.5C76.7917 63.9167 79.3542 64.625 82.8125 64.625C84.1458 64.625 85.5 64.5417 86.875 64.375C88.25 64.1667 89.5625 63.9375 90.8125 63.6875C92.0625 63.3958 93.1875 63.1042 94.1875 62.8125C95.1875 62.4792 96 62.1875 96.625 61.9375C98.2917 61.2708 99.9167 60.5625 101.5 59.8125C103.125 59.0208 104.75 58.1458 106.375 57.1875C108.042 56.2292 109.75 55.125 111.5 53.875C113.25 52.5833 115.125 51.0833 117.125 49.375C117.292 49.2917 117.417 49.25 117.5 49.25C117.625 49.25 117.75 49.2917 117.875 49.375C118 49.4583 118.062 49.6042 118.062 49.8125C118.062 49.9792 118 50.125 117.875 50.25C115.833 52 113.917 53.5208 112.125 54.8125C110.333 56.0625 108.604 57.1875 106.938 58.1875C105.271 59.1458 103.625 60 102 60.75C100.375 61.5 98.7083 62.2292 97 62.9375C96.0833 63.2708 95.0625 63.6042 93.9375 63.9375C92.8125 64.2708 91.625 64.5625 90.375 64.8125C89.1667 65.0625 87.9167 65.2708 86.625 65.4375C85.3333 65.6042 84.0625 65.6875 82.8125 65.6875C81.4792 65.6875 80.1875 65.5625 78.9375 65.3125C77.6875 65.1042 76.5625 64.7292 75.5625 64.1875ZM80.6875 43.8125C81.3542 44.1042 82.1458 44.4167 83.0625 44.75C84.0208 45.0833 85.0625 45.3958 86.1875 45.6875C87.3125 45.9375 88.5208 46.1667 89.8125 46.375C91.1042 46.5417 92.4167 46.625 93.75 46.625C95.4583 46.625 97.1667 46.375 98.875 45.875C100.583 45.375 102.125 44.7083 103.5 43.875C104.875 43.0417 106 42.0625 106.875 40.9375C107.75 39.7708 108.188 38.5625 108.188 37.3125C108.188 36.4375 107.958 35.6458 107.5 34.9375C107.083 34.1875 106.5 33.5417 105.75 33C105 32.4583 104.125 32.0417 103.125 31.75C102.167 31.4583 101.167 31.3125 100.125 31.3125C98.7917 31.3125 97.3333 31.5 95.75 31.875C94.2083 32.25 92.5417 32.8958 90.75 33.8125C89 34.6875 87.125 35.875 85.125 37.375C83.1667 38.875 81.125 40.7708 79 43.0625L80.6875 43.8125Z" fill="black"/>
<path d="M82.75 10.4375C82.75 10.4792 82.75 10.5208 82.75 10.5625C82.7917 10.6042 82.8125 10.6458 82.8125 10.6875C82.8125 11.0625 82.625 11.25 82.25 11.25C81.9583 11.25 81.7917 11.125 81.75 10.875C81.2917 9.875 80.6875 9.04167 79.9375 8.375C79.1875 7.70834 78.3333 7.16667 77.375 6.75C76.4167 6.33334 75.375 6.04167 74.25 5.875C73.1667 5.70833 72.0625 5.625 70.9375 5.625C68.0208 5.625 65.2917 6.08333 62.75 7C60.2083 7.91667 57.875 9.16667 55.75 10.75C58.2917 11.875 60.4167 13.25 62.125 14.875C63.8333 16.5 65.2083 18.2917 66.25 20.25C67.3333 22.2083 68.1042 24.2708 68.5625 26.4375C69.0208 28.6042 69.25 30.7708 69.25 32.9375C69.25 34.9792 69.0417 37.2292 68.625 39.6875C68.2083 42.1458 67.5625 44.625 66.6875 47.125C65.8125 49.5833 64.6875 52 63.3125 54.375C61.9792 56.7083 60.375 58.7917 58.5 60.625C56.625 62.4167 54.4792 63.875 52.0625 65C49.6458 66.0833 46.9375 66.625 43.9375 66.625C42.4792 66.625 40.9792 66.4167 39.4375 66C37.9375 65.5833 36.5625 64.9375 35.3125 64.0625C34.0625 63.1875 33.0208 62.0625 32.1875 60.6875C31.3958 59.3125 31 57.6458 31 55.6875C31 54.8542 31.125 54 31.375 53.125C31.625 52.2083 32.0625 51.375 32.6875 50.625C33.3125 49.875 34.125 49.2708 35.125 48.8125C36.1667 48.3125 37.4375 48.0625 38.9375 48.0625C39.0625 48.0625 39.5417 48.1042 40.375 48.1875C41.25 48.2708 42.1667 48.4167 43.125 48.625C44.125 48.7917 45.0208 49.0208 45.8125 49.3125C46.6458 49.6042 47.0625 49.9583 47.0625 50.375C47.0625 50.5 47 50.625 46.875 50.75C46.75 50.875 46.6042 50.9375 46.4375 50.9375C46.3542 50.9375 46.2917 50.9167 46.25 50.875C44.7083 50.25 43.3333 49.8125 42.125 49.5625C40.9583 49.3125 39.8958 49.1875 38.9375 49.1875C37.6875 49.1875 36.625 49.3958 35.75 49.8125C34.875 50.1875 34.1667 50.6875 33.625 51.3125C33.125 51.9375 32.75 52.6458 32.5 53.4375C32.25 54.2292 32.125 55.0417 32.125 55.875C32.125 57.5 32.4792 58.9167 33.1875 60.125C33.9375 61.3333 34.875 62.3333 36 63.125C37.125 63.9167 38.375 64.5208 39.75 64.9375C41.1667 65.3125 42.5625 65.5 43.9375 65.5C46.6042 65.5 49.0417 65.0208 51.25 64.0625C53.5 63.1042 55.5208 61.8125 57.3125 60.1875C59.1042 58.5625 60.6667 56.6875 62 54.5625C63.375 52.3958 64.5 50.1042 65.375 47.6875C66.2917 45.2708 66.9792 42.8125 67.4375 40.3125C67.8958 37.7708 68.125 35.3125 68.125 32.9375C68.125 30.7708 67.8958 28.6458 67.4375 26.5625C66.9792 24.4375 66.2292 22.4583 65.1875 20.625C64.1458 18.75 62.7708 17.0417 61.0625 15.5C59.3542 13.9167 57.2292 12.5833 54.6875 11.5C52.1458 13.4583 49.7708 15.75 47.5625 18.375C45.3958 20.9583 43.2708 23.7917 41.1875 26.875C43.1875 26.875 45.125 26.6042 47 26.0625C48.875 25.5208 50.6875 24.625 52.4375 23.375C52.7292 23.1667 53.1042 22.8542 53.5625 22.4375C54.0625 21.9792 54.5625 21.5208 55.0625 21.0625C55.5625 20.6042 56 20.2083 56.375 19.875C56.7917 19.5417 57.0625 19.375 57.1875 19.375C57.5625 19.375 57.75 19.5625 57.75 19.9375C57.75 19.8958 57.75 19.9167 57.75 20C57.7917 20.0417 57.7083 20.2292 57.5 20.5625C57.2917 20.8542 56.8542 21.2917 56.1875 21.875C55.5625 22.4583 54.6042 23.2083 53.3125 24.125C51.6042 25.3333 49.7917 26.2917 47.875 27C45.9583 27.6667 43.9583 28 41.875 28C41.625 28 41.375 28 41.125 28C40.9167 28 40.6875 27.9792 40.4375 27.9375C39.5208 29.2708 38.6042 30.6458 37.6875 32.0625C36.7708 33.4792 35.875 34.8958 35 36.3125C33.2917 39.0208 31.7083 41.7083 30.25 44.375C28.7917 47.0417 27.375 49.6042 26 52.0625C24.6667 54.4792 23.3333 56.7292 22 58.8125C20.6667 60.8542 19.2708 62.6458 17.8125 64.1875C16.3958 65.6875 14.8542 66.8542 13.1875 67.6875C11.5625 68.5625 9.77083 69 7.8125 69C7.02083 69 6.20833 68.8542 5.375 68.5625C4.5 68.2708 3.70833 67.8542 3 67.3125C2.25 66.8125 1.64583 66.2083 1.1875 65.5C0.729167 64.8333 0.5 64.1042 0.5 63.3125C0.5 62.9375 0.6875 62.75 1.0625 62.75C1.35417 62.75 1.54167 62.875 1.625 63.125C1.95833 64.625 2.70833 65.7917 3.875 66.625C5.04167 67.4583 6.35417 67.875 7.8125 67.875C10.5625 67.875 12.9792 66.9792 15.0625 65.1875C17.1458 63.3958 19.1667 61 21.125 58C23.0833 55 25.0625 51.5833 27.0625 47.75C29.1042 43.875 31.4375 39.875 34.0625 35.75C34.8958 34.4167 35.75 33.0833 36.625 31.75C37.5 30.4167 38.3542 29.0833 39.1875 27.75C37.8542 27.5417 36.6042 27.1875 35.4375 26.6875C34.3125 26.1458 33.3125 25.5 32.4375 24.75C31.6042 23.9583 30.9375 23.0833 30.4375 22.125C29.9375 21.125 29.6875 20.0625 29.6875 18.9375C29.6875 17.2708 30.25 15.6042 31.375 13.9375C32.8333 11.7292 34.6458 10.1875 36.8125 9.3125C38.9792 8.4375 41.2917 8 43.75 8C45.5833 8 47.3958 8.20834 49.1875 8.625C51.0208 9 52.7917 9.52083 54.5 10.1875C56.9583 8.4375 59.5208 7.0625 62.1875 6.0625C64.8542 5.02083 67.7708 4.5 70.9375 4.5C72.0625 4.5 73.2083 4.60417 74.375 4.8125C75.5833 4.97917 76.7083 5.29167 77.75 5.75C78.8333 6.16667 79.8125 6.77083 80.6875 7.5625C81.5625 8.3125 82.25 9.27084 82.75 10.4375ZM45.6875 18.9375C46.8958 17.4375 48.1458 16.0208 49.4375 14.6875C50.7292 13.3542 52.0833 12.125 53.5 11C52 10.4583 50.3958 10.0208 48.6875 9.6875C47.0208 9.3125 45.3542 9.125 43.6875 9.125C42.1458 9.125 40.6042 9.375 39.0625 9.875C37.5625 10.3333 36.1875 11 34.9375 11.875C33.7292 12.75 32.75 13.7708 32 14.9375C31.25 16.1042 30.875 17.375 30.875 18.75C30.875 20.6667 31.6875 22.3542 33.3125 23.8125C34.9792 25.2708 37.1875 26.2292 39.9375 26.6875C41.8125 23.8542 43.7292 21.2708 45.6875 18.9375Z" fill="black"/>
</svg>
