<svg  viewBox="0 0 157 180" fill="none" xmlns="http://www.w3.org/2000/svg">
<metadata>
Created by Wahyu Ajis Mustofa 2025
</metadata>
<path d="M108.97 180C106.206 180 103.567 179.12 101.054 177.361C98.5409 175.728 96.5933 172.712 95.2111 168.314C93.9545 164.042 93.8289 157.948 94.8341 150.031C95.3367 146.262 96.2163 140.67 97.4728 133.257C98.855 125.717 100.489 117.298 102.373 108C104.384 98.7016 106.394 89.3403 108.405 79.9162C110.29 71.2461 112.112 63.0157 113.871 55.2251C115.756 47.3089 117.452 40.2723 118.96 34.1152C120.468 27.8325 121.724 22.7435 122.729 18.8482C123.735 14.9529 124.3 12.6283 124.426 11.8744C125.682 7.35079 127.818 4.27226 130.834 2.63875C133.975 0.879585 137.305 0 140.824 0C144.845 0 148.551 0.879585 151.944 2.63875C155.337 4.39791 156.97 6.911 156.845 10.178C155.714 13.0681 153.892 18.2827 151.379 25.822C148.991 33.3613 146.227 42.5969 143.085 53.5288C140.07 64.4607 136.991 76.5864 133.85 89.9058C130.708 103.225 127.818 117.173 125.18 131.749C122.541 146.325 120.342 161.277 118.583 176.607C115.944 178.869 112.74 180 108.97 180Z" fill="#31344B"/>
<path d="M47.7801 151.162C43.8848 151.162 39.6754 150.094 35.1518 147.958C30.7539 145.822 26.4188 142.995 22.1466 139.476C17.8743 135.958 13.979 132.126 10.4607 127.979C7.06805 123.707 4.36649 119.497 2.35602 115.351C0.471203 111.204 -0.282722 107.435 0.0942409 104.042C0.471204 100.649 2.04188 96.8796 4.80628 92.733C7.69633 88.5864 11.3403 84.4398 15.7382 80.2932C20.2618 76.021 25.0994 72.1257 30.2513 68.6073C35.4031 65.089 40.4293 62.2618 45.3298 60.1257C50.356 57.9895 54.8167 56.9215 58.712 56.9215C62.4816 56.9215 65.3717 58.0524 67.3821 60.3142C69.3926 62.4503 70.7748 65.2147 71.5287 68.6073C72.4083 71.8744 72.8481 75.3299 72.8481 78.9738C60.0314 82.9948 49.7905 87.0157 42.1256 91.0367C34.4607 95.0576 28.8691 99.267 25.3508 103.665C28.4921 108.565 33.8953 113.78 41.5602 119.309C49.3507 124.712 59.4659 129.55 71.9057 133.822C70.3978 136.209 68.4502 138.785 66.0628 141.55C63.801 144.188 61.0994 146.45 57.9581 148.335C54.9423 150.22 51.5497 151.162 47.7801 151.162Z" fill="#31344B"/>
</svg>
