<svg width="200" height="200" viewBox="0 0 200 200" fill="none" xmlns="http://www.w3.org/2000/svg">
<path d="M100 0C155.228 6.64882e-05 200 44.7716 200 100C200 155.228 155.228 200 100 200C44.7715 200 5.15476e-07 155.228 0 100C0 44.7715 44.7715 0 100 0ZM146.352 16.8545C142.807 16.8545 139.451 17.7412 136.286 19.5137C133.248 21.1595 131.095 24.2617 129.829 28.8193C129.702 29.5794 129.133 31.9217 128.12 35.8457C127.107 39.7703 125.841 44.8976 124.322 51.2275C122.803 57.4311 121.094 64.5211 119.195 72.4971C117.423 80.3465 115.587 88.6394 113.688 97.375C111.662 106.87 109.636 116.302 107.61 125.671C105.711 135.039 104.065 143.522 102.673 151.118C101.407 158.588 100.521 164.221 100.015 168.02C99.0018 175.995 99.1285 182.136 100.395 186.44C101.787 190.871 103.749 193.91 106.281 195.556C108.813 197.328 111.472 198.214 114.257 198.214C118.055 198.214 121.284 197.075 123.942 194.796C125.715 179.35 127.93 164.285 130.589 149.599C133.248 134.913 136.16 120.859 139.325 107.439C142.49 94.0197 145.591 81.8025 148.63 70.7881C151.795 59.7736 154.581 50.4683 156.986 42.8721C159.518 35.2759 161.354 30.0212 162.493 27.1094C162.62 23.8179 160.974 21.286 157.556 19.5137C154.137 17.7413 150.403 16.8545 146.352 16.8545ZM63.6191 74.2061C59.6945 74.2061 55.1997 75.2824 50.1357 77.4346C45.1983 79.5868 40.134 82.4357 34.9434 85.9805C29.7527 89.5253 24.8789 93.4504 20.3213 97.7549C15.8903 101.933 12.2185 106.11 9.30664 110.288C6.52138 114.466 4.93841 118.264 4.55859 121.683C4.17878 125.101 4.93884 128.899 6.83789 133.077C8.86354 137.255 11.5856 141.496 15.0039 145.801C18.5488 149.979 22.4739 153.84 26.7783 157.385C31.0828 160.93 35.4508 163.778 39.8818 165.931C44.4394 168.083 48.6809 169.159 52.6055 169.159C56.4032 169.159 59.8211 168.209 62.8594 166.311C66.0244 164.412 68.7465 162.132 71.0254 159.474C73.4308 156.688 75.3938 154.093 76.9131 151.688C64.3794 147.383 54.1873 142.509 46.3379 137.065C38.6151 131.495 33.1709 126.24 30.0059 121.303C33.5507 116.872 39.1854 112.63 46.9082 108.579C54.6309 104.528 64.949 100.477 77.8623 96.4258C77.8623 92.7543 77.4194 89.2722 76.5332 85.9805C75.7736 82.5624 74.3809 79.7772 72.3555 77.625C70.3298 75.3461 67.4172 74.2061 63.6191 74.2061Z" fill="#E6E7EE"/>
</svg>
