<svg width="569" height="94" viewBox="0 0 569 94" fill="none" xmlns="http://www.w3.org/2000/svg">
<path d="M568.5 23.7196V92.8705H554.193V84.713C551.934 87.5576 548.964 89.8166 545.283 91.49C541.685 93.0797 537.836 93.8745 533.736 93.8745C528.298 93.8745 523.404 92.745 519.053 90.486C514.786 88.227 511.397 84.8803 508.887 80.4459C506.461 76.0116 505.248 70.6569 505.248 64.3818V23.7196H519.429V62.2483C519.429 68.4397 520.977 73.2087 524.073 76.5554C527.169 79.8184 531.394 81.4499 536.748 81.4499C542.103 81.4499 546.328 79.8184 549.424 76.5554C552.603 73.2087 554.193 68.4397 554.193 62.2483V23.7196H568.5Z" fill="#E6E7EE"/>
<path d="M463.743 58.3578L495.62 92.8705H476.293L450.691 63.1269V92.8705H436.384V0H450.691V53.9653L475.791 23.7196H495.62L463.743 58.3578Z" fill="#E6E7EE"/>
<path d="M422.304 56.6008C422.304 59.1945 422.137 61.5371 421.802 63.6288H368.967C369.385 69.1509 371.435 73.5852 375.116 76.9319C378.798 80.2786 383.316 81.9519 388.67 81.9519C396.368 81.9519 401.806 78.7307 404.985 72.2884H420.422C418.33 78.6471 414.523 83.8763 409.001 87.976C403.563 91.992 396.786 94 388.67 94C382.061 94 376.12 92.5358 370.849 89.6075C365.662 86.5955 361.562 82.4121 358.55 77.0574C355.622 71.619 354.158 65.344 354.158 58.2323C354.158 51.1206 355.58 44.8874 358.425 39.5327C361.353 34.0943 365.411 29.911 370.598 26.9826C375.869 24.0543 381.893 22.5901 388.67 22.5901C395.196 22.5901 401.011 24.0124 406.115 26.8571C411.219 29.7018 415.193 33.7178 418.037 38.9052C420.882 44.0089 422.304 49.9074 422.304 56.6008ZM407.37 52.0828C407.286 46.8117 405.404 42.5865 401.722 39.4072C398.041 36.2278 393.481 34.6382 388.043 34.6382C383.106 34.6382 378.881 36.2278 375.367 39.4072C371.853 42.5029 369.762 46.7281 369.092 52.0828H407.37Z" fill="#E6E7EE"/>
<path d="M316.795 58.3578L348.672 92.8705H329.345L303.743 63.1269V92.8705H289.436V0H303.743V53.9653L328.843 23.7196H348.672L316.795 58.3578Z" fill="#E6E7EE"/>
<path d="M275.356 56.6008C275.356 59.1945 275.189 61.5371 274.854 63.6288H222.018C222.436 69.1509 224.486 73.5852 228.168 76.9319C231.849 80.2786 236.367 81.9519 241.722 81.9519C249.419 81.9519 254.857 78.7307 258.037 72.2884H273.473C271.382 78.6471 267.575 83.8763 262.053 87.976C256.614 91.992 249.837 94 241.722 94C235.112 94 229.172 92.5358 223.901 89.6075C218.713 86.5955 214.614 82.4121 211.602 77.0574C208.673 71.619 207.209 65.344 207.209 58.2323C207.209 51.1206 208.631 44.8874 211.476 39.5327C214.404 34.0943 218.462 29.911 223.65 26.9826C228.921 24.0543 234.945 22.5901 241.722 22.5901C248.248 22.5901 254.063 24.0124 259.166 26.8571C264.27 29.7018 268.244 33.7178 271.089 38.9052C273.934 44.0089 275.356 49.9074 275.356 56.6008ZM260.421 52.0828C260.338 46.8117 258.455 42.5865 254.774 39.4072C251.092 36.2278 246.533 34.6382 241.094 34.6382C236.158 34.6382 231.933 36.2278 228.419 39.4072C224.905 42.5029 222.813 46.7281 222.144 52.0828H260.421Z" fill="#E6E7EE"/>
<path d="M151.489 5.64746C160.776 5.64746 168.891 7.4463 175.836 11.044C182.864 14.558 188.26 19.6617 192.025 26.3551C195.874 32.9648 197.798 40.704 197.798 49.5727C197.798 58.4414 195.874 66.1388 192.025 72.6648C188.26 79.1909 182.864 84.2109 175.836 87.7249C168.891 91.1553 160.776 92.8705 151.489 92.8705H123V5.64746H151.489ZM151.489 81.1989C161.696 81.1989 169.519 78.4379 174.957 72.9159C180.396 67.3938 183.115 59.6128 183.115 49.5727C183.115 39.449 180.396 31.5424 174.957 25.8531C169.519 20.1637 161.696 17.319 151.489 17.319H137.307V81.1989H151.489Z" fill="#E6E7EE"/>
<path d="M47 0C72.9574 0 94 21.0426 94 47C94 72.9574 72.9574 94 47 94C21.0426 94 0 72.9574 0 47C5.15475e-07 21.0426 21.0426 5.15408e-07 47 0ZM68.7852 7.92188C67.1191 7.92188 65.5423 8.33883 64.0547 9.17188C62.6266 9.94543 61.6146 11.4028 61.0195 13.5449C60.96 13.902 60.6928 15.0031 60.2168 16.8477C59.7408 18.6922 59.1457 21.1021 58.4316 24.0771C57.7176 26.9927 56.914 30.3247 56.0215 34.0732C55.1884 37.7625 54.3261 41.6609 53.4336 45.7666C52.4816 50.2292 51.5292 54.6623 50.5771 59.0654C49.6846 63.4686 48.9104 67.4552 48.2559 71.0254C47.6609 74.5358 47.2449 77.1837 47.0068 78.9688C46.5308 82.7175 46.5905 85.6038 47.1855 87.627C47.8401 89.7095 48.7621 91.1376 49.9521 91.9111C51.1422 92.7442 52.3921 93.1611 53.7012 93.1611C55.4862 93.1611 57.0034 92.6247 58.2529 91.5537C59.086 84.2945 60.1274 77.2138 61.377 70.3115C62.6265 63.4093 63.9949 56.8043 65.4824 50.4971C66.97 44.1897 68.4284 38.4473 69.8564 33.2705C71.344 28.0937 72.6526 23.7196 73.7832 20.1494C74.9732 16.5794 75.8366 14.1097 76.3721 12.7412C76.4314 11.1943 75.6572 10.0048 74.0508 9.17188C72.4442 8.33887 70.6892 7.92189 68.7852 7.92188ZM29.9014 34.877C28.0568 34.877 25.9445 35.383 23.5645 36.3945C21.2438 37.4061 18.8635 38.745 16.4238 40.4111C13.9842 42.0772 11.6929 43.9212 9.55078 45.9443C7.46816 47.908 5.7426 49.8723 4.37402 51.8359C3.0652 53.7993 2.32115 55.584 2.14258 57.1904C1.96407 58.797 2.32138 60.5824 3.21387 62.5459C4.16592 64.5095 5.44516 66.5032 7.05176 68.5264C8.71785 70.49 10.5628 72.3046 12.5859 73.9707C14.609 75.6367 16.6616 76.9758 18.7441 77.9873C20.8863 78.9989 22.88 79.5049 24.7246 79.5049C26.5095 79.5048 28.116 79.0584 29.5439 78.166C31.0315 77.2735 32.3108 76.2017 33.3818 74.9521C34.5123 73.6431 35.4354 72.4235 36.1494 71.293C30.2588 69.2699 25.4685 66.9794 21.7793 64.4209C18.1496 61.8028 15.5901 59.3333 14.1025 57.0127C15.7686 54.9301 18.4172 52.9363 22.0469 51.0322C25.6766 49.1281 30.5264 47.2244 36.5957 45.3203C36.5957 43.5948 36.3872 41.9581 35.9707 40.4111C35.6137 38.8045 34.9589 37.495 34.0068 36.4834C33.0548 35.4125 31.6863 34.877 29.9014 34.877Z" fill="#E6E7EE"/>
</svg>
