<svg width="569" height="94" viewBox="0 0 569 94" fill="none" xmlns="http://www.w3.org/2000/svg">
<path d="M241.722 22.5898C248.248 22.5898 254.062 24.0128 259.166 26.8574C264.27 29.7021 268.244 33.7179 271.089 38.9053C273.934 44.0089 275.355 49.9073 275.355 56.6006C275.355 59.1943 275.188 61.5372 274.854 63.6289H222.019C222.437 69.1509 224.487 73.585 228.168 76.9316C231.849 80.2783 236.367 81.9521 241.722 81.9521C249.419 81.9521 254.858 78.7305 258.037 72.2881H273.474C271.382 78.6468 267.575 83.8759 262.053 87.9756C256.614 91.9916 249.837 94 241.722 94C235.112 94 229.171 92.5358 223.9 89.6074C218.713 86.5954 214.614 82.4122 211.602 77.0576C208.673 71.6193 207.209 65.3441 207.209 58.2324C207.209 51.1207 208.631 44.8869 211.476 39.5322C214.404 34.094 218.462 29.9107 223.649 26.9824C228.92 24.0541 234.945 22.5899 241.722 22.5898ZM388.67 22.5898C395.196 22.5898 401.012 24.0127 406.115 26.8574C411.219 29.7021 415.193 33.7181 418.037 38.9053C420.882 44.0089 422.305 49.9073 422.305 56.6006C422.305 59.1943 422.137 61.5372 421.803 63.6289H368.967C369.385 69.1508 371.435 73.585 375.116 76.9316C378.797 80.2783 383.315 81.9521 388.67 81.9521C396.367 81.9521 401.806 78.7305 404.985 72.2881H420.422C418.33 78.6468 414.523 83.8759 409.001 87.9756C403.563 91.9916 396.786 94 388.67 94C382.06 93.9999 376.12 92.5356 370.85 89.6074C365.662 86.5954 361.562 82.4123 358.55 77.0576C355.621 71.6193 354.157 65.3441 354.157 58.2324C354.157 51.1207 355.58 44.8869 358.425 39.5322C361.353 34.0941 365.411 29.9107 370.599 26.9824C375.869 24.0543 381.893 22.5899 388.67 22.5898ZM519.43 62.248C519.43 68.4394 520.978 73.209 524.073 76.5557C527.169 79.8184 531.394 81.4501 536.748 81.4502C542.103 81.4502 546.328 79.8185 549.424 76.5557C552.603 73.209 554.193 68.4394 554.193 62.248V23.7197H568.5V92.8701H554.193V84.7129C551.934 87.5576 548.964 89.8169 545.282 91.4902C541.685 93.0798 537.836 93.874 533.736 93.874C528.298 93.874 523.403 92.7453 519.053 90.4863C514.786 88.2274 511.398 84.8804 508.888 80.4463C506.461 76.0119 505.248 70.6569 505.248 64.3818V23.7197H519.43V62.248ZM151.488 5.64746C160.775 5.64746 168.892 7.44625 175.836 11.0439C182.864 14.558 188.26 19.6621 192.025 26.3555C195.874 32.965 197.799 40.7039 197.799 49.5723C197.799 58.441 195.874 66.139 192.025 72.665C188.26 79.1909 182.864 84.2106 175.836 87.7246C168.892 91.155 160.775 92.8701 151.488 92.8701H123V5.64746H151.488ZM303.742 53.9648L328.843 23.7197H348.672L316.795 58.3574L348.672 92.8701H329.345L303.742 63.127V92.8701H289.436V0H303.742V53.9648ZM450.691 53.9648L475.791 23.7197H495.62L463.743 58.3574L495.62 92.8701H476.293L450.691 63.127V92.8701H436.384V0H450.691V53.9648ZM137.307 81.1992H151.488C161.696 81.1992 169.519 78.4379 174.957 72.916C180.395 67.394 183.115 59.6123 183.115 49.5723C183.115 39.4488 180.395 31.5428 174.957 25.8535C169.519 20.1641 161.696 17.3193 151.488 17.3193H137.307V81.1992ZM241.094 34.6377C236.158 34.6378 231.933 36.2281 228.419 39.4072C224.905 42.5029 222.813 46.7283 222.144 52.083H260.421C260.337 46.812 258.455 42.5866 254.773 39.4072C251.092 36.228 246.532 34.6377 241.094 34.6377ZM388.043 34.6377C383.107 34.6377 378.881 36.2279 375.367 39.4072C371.853 42.5029 369.761 46.7283 369.092 52.083H407.37C407.286 46.8121 405.404 42.5866 401.723 39.4072C398.041 36.2279 393.481 34.6377 388.043 34.6377Z" fill="#31344B"/>
<path d="M47 0C72.9574 0 94 21.0426 94 47C94 72.9574 72.9574 94 47 94C21.0426 94 0 72.9574 0 47C5.15475e-07 21.0426 21.0426 5.15408e-07 47 0ZM68.7852 7.92188C67.1191 7.92188 65.5423 8.33883 64.0547 9.17188C62.6266 9.94543 61.6146 11.4028 61.0195 13.5449C60.96 13.902 60.6928 15.0031 60.2168 16.8477C59.7408 18.6922 59.1457 21.1021 58.4316 24.0771C57.7176 26.9927 56.914 30.3247 56.0215 34.0732C55.1884 37.7625 54.3261 41.6609 53.4336 45.7666C52.4816 50.2292 51.5292 54.6623 50.5771 59.0654C49.6846 63.4686 48.9104 67.4552 48.2559 71.0254C47.6609 74.5358 47.2449 77.1837 47.0068 78.9688C46.5308 82.7175 46.5905 85.6038 47.1855 87.627C47.8401 89.7095 48.7621 91.1376 49.9521 91.9111C51.1422 92.7442 52.3921 93.1611 53.7012 93.1611C55.4862 93.1611 57.0034 92.6247 58.2529 91.5537C59.086 84.2945 60.1274 77.2138 61.377 70.3115C62.6265 63.4093 63.9949 56.8043 65.4824 50.4971C66.97 44.1897 68.4284 38.4473 69.8564 33.2705C71.344 28.0937 72.6526 23.7196 73.7832 20.1494C74.9732 16.5794 75.8366 14.1097 76.3721 12.7412C76.4314 11.1943 75.6572 10.0048 74.0508 9.17188C72.4442 8.33887 70.6892 7.92189 68.7852 7.92188ZM29.9014 34.877C28.0568 34.877 25.9445 35.383 23.5645 36.3945C21.2438 37.4061 18.8635 38.745 16.4238 40.4111C13.9842 42.0772 11.6929 43.9212 9.55078 45.9443C7.46816 47.908 5.7426 49.8723 4.37402 51.8359C3.0652 53.7993 2.32115 55.584 2.14258 57.1904C1.96407 58.797 2.32138 60.5824 3.21387 62.5459C4.16592 64.5095 5.44516 66.5032 7.05176 68.5264C8.71785 70.49 10.5628 72.3046 12.5859 73.9707C14.609 75.6367 16.6616 76.9758 18.7441 77.9873C20.8863 78.9989 22.88 79.5049 24.7246 79.5049C26.5095 79.5048 28.116 79.0584 29.5439 78.166C31.0315 77.2735 32.3108 76.2017 33.3818 74.9521C34.5123 73.6431 35.4354 72.4235 36.1494 71.293C30.2588 69.2699 25.4685 66.9794 21.7793 64.4209C18.1496 61.8028 15.5901 59.3333 14.1025 57.0127C15.7686 54.9301 18.4172 52.9363 22.0469 51.0322C25.6766 49.1281 30.5264 47.2244 36.5957 45.3203C36.5957 43.5948 36.3872 41.9581 35.9707 40.4111C35.6137 38.8045 34.9589 37.495 34.0068 36.4834C33.0548 35.4125 31.6863 34.877 29.9014 34.877Z" fill="#31344B"/>
</svg>
